<?xml version="1.0" encoding="UTF-8" standalone="no"?>
<svg
   xmlns:dc="http://purl.org/dc/elements/1.1/"
   xmlns:cc="http://creativecommons.org/ns#"
   xmlns:rdf="http://www.w3.org/1999/02/22-rdf-syntax-ns#"
   xmlns:svg="http://www.w3.org/2000/svg"
   xmlns="http://www.w3.org/2000/svg"
   xmlns:xlink="http://www.w3.org/1999/xlink"
   id="svg7"
   xml:space="preserve"
   viewBox="0 0 1024 768"
   y="0px"
   x="0px"
   version="1.1"><metadata
     id="metadata13"><rdf:RDF><cc:Work
         rdf:about=""><dc:format>image/svg+xml</dc:format><dc:type
           rdf:resource="http://purl.org/dc/dcmitype/StillImage" /></cc:Work></rdf:RDF></metadata><defs
     id="defs11" /><g
     id="g3"
     transform="matrix(1.5,0,0,1.2,512,384)"><path
       style="fill:#b6b6b6"
       d="m 152.4,-201.9 c 46.6,26 86.9,68.5 97.2,116.9 10.4,48.3 -9.3,102.5 -32.2,150.3 -22.9,47.8 -49,89.1 -85.8,121.8 -36.8,32.8 -84.2,56.8 -135.5,62.2 -51.4,5.4 -106.6,-7.9 -148.6,-38.9 -42,-31 -70.8,-79.8 -87.5,-132.2 -16.8,-52.4 -21.5,-108.6 -2.2,-153.4 19.4,-44.8 62.9,-78.2 107.3,-105 44.4,-26.7 89.6,-46.8 138.7,-52 49.1,-5.3 102,4.2 148.6,30.3 z"
       id="path" /></g><animate
     fill="freeze"
     values="M120.2,-176.8C149.6,-144.2,162.8,-100.7,175.5,-57.9C188.3,-15,200.7,27.1,195.6,70.1C190.6,113,168.2,156.8,132.7,178C97.2,199.1,48.6,197.5,4.9,190.8C-38.8,184.1,-77.6,172.1,-115.3,151.7C-153,131.3,-189.7,102.4,-205.6,64.2C-221.6,26.1,-216.8,-21.4,-204,-67.9C-191.2,-114.4,-170.2,-160,-134.9,-190.6C-99.5,-221.3,-49.8,-237.2,-2.2,-234.2C45.5,-231.2,90.9,-209.5,120.2,-176.8Z; M152.4,-201.9C199,-175.9,239.3,-133.4,249.6,-85C260,-36.7,240.3,17.5,217.4,65.3C194.5,113.1,168.4,154.4,131.6,187.1C94.8,219.9,47.4,243.9,-3.9,249.3C-55.3,254.7,-110.5,241.4,-152.5,210.4C-194.5,179.4,-223.3,130.6,-240,78.2C-256.8,25.8,-261.5,-30.4,-242.2,-75.2C-222.8,-120,-179.3,-153.4,-134.9,-180.2C-90.5,-206.9,-45.3,-227,3.8,-232.2C52.9,-237.5,105.8,-228,152.4,-201.9Z; M101.9,-120.6C144.2,-109.5,199.1,-96,223.6,-62.7C248.2,-29.4,242.5,23.8,220.4,65.3C198.2,106.8,159.7,136.8,120.2,173.1C80.7,209.4,40.4,252.2,-4.7,258.7C-49.8,265.2,-99.5,235.3,-119,192.5C-138.5,149.7,-127.8,93.8,-144.4,46.1C-161,-1.6,-205.1,-41.3,-214.9,-88C-224.7,-134.6,-200.2,-188.3,-158.7,-199.6C-117.2,-210.9,-58.6,-180,-14.4,-160.1C29.8,-140.3,59.6,-131.6,101.9,-120.6Z; M113.1,-161.5C148.6,-129.9,180.8,-99.5,181.6,-66.3C182.3,-33.1,151.5,3.1,132.4,37.1C113.2,71.2,105.7,103.2,85.6,142.9C65.4,182.7,32.7,230.4,-3.9,235.8C-40.6,241.2,-81.1,204.3,-114.7,168.9C-148.3,133.5,-175,99.5,-198.1,57.5C-221.3,15.5,-240.9,-34.6,-221,-64.4C-201.2,-94.2,-141.7,-103.7,-98.3,-132.8C-54.9,-161.8,-27.4,-210.4,5.7,-218.2C38.8,-226.1,77.6,-193.1,113.1,-161.5Z; M102,-143.7C138.9,-113.5,180.3,-92.8,196.8,-59.7C213.4,-26.7,205.1,18.6,190.6,61.5C176.1,104.4,155.4,144.8,122.5,162.7C89.7,180.5,44.9,175.8,-1.2,177.4C-47.2,179,-94.4,187,-113.8,164.8C-133.1,142.5,-124.6,90.1,-143.6,43.8C-162.6,-2.6,-209.2,-42.9,-216.4,-85.7C-223.7,-128.5,-191.5,-173.9,-148.8,-202.2C-106.2,-230.5,-53.1,-241.7,-10.3,-227.6C32.5,-213.4,65,-173.9,102,-143.7Z; M120.2,-176.8C149.6,-144.2,162.8,-100.7,175.5,-57.9C188.3,-15,200.7,27.1,195.6,70.1C190.6,113,168.2,156.8,132.7,178C97.2,199.1,48.6,197.5,4.9,190.8C-38.8,184.1,-77.6,172.1,-115.3,151.7C-153,131.3,-189.7,102.4,-205.6,64.2C-221.6,26.1,-216.8,-21.4,-204,-67.9C-191.2,-114.4,-170.2,-160,-134.9,-190.6C-99.5,-221.3,-49.8,-237.2,-2.2,-234.2C45.5,-231.2,90.9,-209.5,120.2,-176.8Z"
     keySplines="0.9 0.1 0.1 0.9;0.9 0.1 0.1 0.9;0.9 0.1 0.1 0.9;0.9 0.1 0.1 0.9;0.9 0.1 0.1 0.9"
     calcMode="spline"
     keyTimes="0; 0.2; 0.4; 0.6; 0.8; 1"
     attributeName="d"
     repeatCount="indefinite"
     dur="20s"
     attributeType="XML"
     xlink:href="#path" /><path
     id="path5"
     transform="translate(153.6 115.2) scale(0.7)"
     fill="#030303"
     d="m303.22 295.92c-26.04 0-47.22 21.72-47.22 48.57 0 26.84 21.18 48.56 47.22 48.56 15.11 0 28.6-7.28 37.37-18.75 2.7-3.78 0.13-9.04-4.45-9.04h-0.14c-1.75 0-3.37 0.81-4.45 2.29-6.61 8.77-16.86 14.44-28.33 14.44-19.83 0-36.02-16.86-36.02-37.5 0-20.65 16.19-37.37 36.02-37.37 11.47 0 21.86 5.53 28.33 14.3 1.08 1.48 2.83 2.29 4.59 2.29 4.58 0 7.15-5.26 4.45-9.04-8.63-11.47-22.26-18.75-37.37-18.75zm352.76 0c-16.72 0-29.27 11.74-29.27 27.25 0 16.86 15.78 21.85 28.33 25.9 14.44 4.59 21.18 7.69 21.18 15.92 0 11.74-9.98 16.87-19.7 16.87-9.44 0-17.4-6.61-19.29-15.38-0.54-2.57-2.83-4.32-5.53-4.32-3.51 0-6.2 3.37-5.4 6.88 3.11 13.76 15.52 24.01 30.22 24.01 17.81 0 30.9-11.73 30.9-28.06 0-17.27-16.05-22.39-28.87-26.58-14.03-4.45-20.64-7.42-20.64-15.24 0-9.44 7.42-16.05 18.07-16.05 8.5 0 15.65 5.8 17.54 13.76 0.68 2.43 2.84 4.31 5.4 4.31 3.78 0 6.34-3.5 5.4-7.01-3.11-12.82-14.71-22.26-28.34-22.26zm-255.77 1.23c-1.03-0.01-2.21 0-2.62 0.02-0.4 0.02-1.01 0.06-1.35 0.09-0.33 0.02-0.9 0.07-1.26 0.11-0.36 0.03-1.03 0.11-1.48 0.16-0.45 0.06-1.23 0.17-1.73 0.26-0.5 0.08-1.32 0.23-1.82 0.34-0.51 0.1-1.35 0.29-1.86 0.42-0.52 0.12-1.2 0.31-1.53 0.4-0.32 0.09-0.93 0.27-1.35 0.4s-1.16 0.38-1.65 0.55c-0.48 0.18-1.24 0.46-1.68 0.64-0.44 0.17-1.21 0.49-1.71 0.71s-1.35 0.62-1.88 0.88-1.34 0.68-1.79 0.93-1.22 0.69-1.71 0.98c-0.49 0.3-1.25 0.77-1.69 1.07-0.6 0.4-0.87 0.6-1.05 0.8-0.13 0.15-0.31 0.41-0.4 0.59-0.09 0.17-0.21 0.45-0.26 0.63-0.08 0.25-0.1 0.41-0.1 0.8 0 0.33 0.02 0.58 0.07 0.76 0.04 0.15 0.15 0.43 0.24 0.61 0.09 0.19 0.26 0.44 0.37 0.57s0.3 0.32 0.41 0.41c0.12 0.1 0.36 0.26 0.54 0.35 0.18 0.1 0.47 0.21 0.65 0.26 0.21 0.05 0.47 0.08 0.73 0.08 0.27 0 0.52-0.03 0.73-0.08 0.17-0.05 0.4-0.12 0.51-0.17 0.12-0.05 0.52-0.29 0.91-0.55 0.39-0.25 1.03-0.66 1.44-0.9s1-0.58 1.31-0.76c0.32-0.18 0.92-0.5 1.35-0.71 0.43-0.22 1.07-0.54 1.43-0.7 0.36-0.17 0.87-0.39 1.12-0.5 0.26-0.11 0.7-0.29 0.99-0.41 0.29-0.11 0.83-0.32 1.2-0.45 0.38-0.14 1.01-0.35 1.42-0.49 0.41-0.13 1.03-0.32 1.39-0.42s0.87-0.24 1.14-0.31 0.87-0.21 1.35-0.32c0.48-0.1 1.18-0.24 1.56-0.31 0.39-0.07 1.03-0.18 1.44-0.24 0.4-0.05 0.99-0.13 1.3-0.17 0.32-0.03 0.91-0.09 1.31-0.12 0.41-0.04 1.22-0.09 1.82-0.12 0.65-0.03 1.61-0.04 2.46-0.02 0.77 0.02 1.68 0.05 2.03 0.07s0.95 0.07 1.33 0.11c0.38 0.03 1.06 0.11 1.51 0.17 0.44 0.05 1.2 0.17 1.68 0.25 0.47 0.08 1.18 0.21 1.57 0.3 0.39 0.08 1.01 0.22 1.38 0.31s1.01 0.26 1.43 0.38 1.29 0.39 1.94 0.61 1.57 0.55 2.04 0.73c0.47 0.19 1.18 0.49 1.58 0.67 0.4 0.17 1.13 0.52 1.62 0.76 0.48 0.24 1.17 0.59 1.52 0.78 0.34 0.19 1.03 0.58 1.51 0.87 0.49 0.29 1.29 0.8 1.78 1.13 0.48 0.32 1.1 0.75 1.37 0.95 0.26 0.19 0.72 0.53 1 0.75s0.82 0.65 1.2 0.97c0.38 0.31 0.94 0.8 1.26 1.08 0.31 0.28 1.04 0.98 1.62 1.56s1.29 1.32 1.57 1.63c0.27 0.31 0.65 0.75 0.84 0.97s0.53 0.64 0.76 0.93c0.24 0.29 0.64 0.82 0.91 1.18s0.7 0.96 0.95 1.33c0.26 0.37 0.68 1.01 0.94 1.43 0.26 0.41 0.68 1.11 0.94 1.56 0.25 0.44 0.74 1.37 1.08 2.05s0.77 1.59 0.95 2c0.18 0.42 0.48 1.15 0.67 1.63 0.18 0.47 0.48 1.31 0.67 1.85 0.18 0.55 0.43 1.37 0.56 1.82s0.31 1.13 0.41 1.52c0.09 0.38 0.25 1.1 0.35 1.6s0.24 1.27 0.32 1.71c0.07 0.44 0.16 1.1 0.21 1.46 0.04 0.36 0.11 0.97 0.15 1.37 0.03 0.39 0.08 0.99 0.11 1.33 0.02 0.33 0.05 1.24 0.06 2.02 0.02 0.86 0.01 1.82-0.02 2.45-0.03 0.57-0.08 1.38-0.11 1.79-0.03 0.42-0.1 1.08-0.15 1.48-0.05 0.39-0.13 1.03-0.19 1.41s-0.17 1.05-0.25 1.48-0.23 1.12-0.32 1.53-0.26 1.09-0.38 1.52c-0.11 0.43-0.33 1.18-0.48 1.66s-0.4 1.23-0.55 1.66c-0.16 0.43-0.4 1.07-0.53 1.41-0.14 0.35-0.37 0.9-0.51 1.23-0.14 0.32-0.49 1.06-0.77 1.64s-0.69 1.38-0.91 1.78c-0.21 0.39-0.57 1.02-0.79 1.39s-0.64 1.03-0.93 1.48c-0.28 0.44-0.56 0.92-0.62 1.05s-0.14 0.36-0.17 0.5-0.06 0.45-0.06 0.69c0 0.28 0.02 0.53 0.08 0.75 0.04 0.17 0.14 0.44 0.21 0.59s0.23 0.4 0.36 0.56c0.12 0.15 0.34 0.37 0.49 0.48 0.15 0.12 0.4 0.27 0.56 0.35 0.17 0.08 0.42 0.18 0.57 0.22 0.19 0.05 0.43 0.07 0.74 0.07 0.36 0 0.55-0.02 0.8-0.09 0.19-0.05 0.46-0.16 0.61-0.24 0.16-0.08 0.39-0.24 0.53-0.35 0.14-0.12 0.35-0.34 0.47-0.5s0.42-0.59 0.65-0.96c0.24-0.36 0.62-0.99 0.86-1.39s0.61-1.04 0.83-1.42c0.21-0.38 0.61-1.14 0.88-1.69 0.28-0.54 0.65-1.3 0.82-1.68 0.17-0.39 0.47-1.06 0.65-1.5 0.19-0.44 0.5-1.24 0.7-1.78 0.2-0.53 0.48-1.33 0.62-1.77s0.36-1.16 0.49-1.6 0.34-1.25 0.48-1.8 0.33-1.41 0.44-1.92c0.1-0.51 0.26-1.33 0.34-1.83s0.19-1.2 0.23-1.56c0.05-0.36 0.13-1.02 0.17-1.46 0.05-0.44 0.12-1.27 0.16-1.84 0.05-0.75 0.07-1.57 0.07-3.09 0-1.24-0.02-2.38-0.05-2.85-0.03-0.43-0.09-1.19-0.14-1.7-0.04-0.51-0.13-1.29-0.19-1.73-0.06-0.45-0.16-1.16-0.23-1.59s-0.2-1.17-0.3-1.65c-0.09-0.47-0.25-1.22-0.35-1.65-0.1-0.44-0.27-1.08-0.36-1.44l-0.4-1.4c-0.13-0.42-0.36-1.15-0.52-1.63-0.16-0.47-0.38-1.1-0.49-1.39s-0.34-0.87-0.51-1.29-0.47-1.13-0.67-1.57c-0.2-0.45-0.62-1.32-0.93-1.94s-0.74-1.44-0.95-1.82c-0.22-0.38-0.59-1.03-0.84-1.44-0.24-0.4-0.7-1.12-1.01-1.6s-0.73-1.09-0.93-1.37-0.62-0.85-0.93-1.27c-0.32-0.41-0.82-1.06-1.13-1.43-0.3-0.37-0.78-0.94-1.07-1.27-0.28-0.32-0.89-0.99-1.35-1.48-0.47-0.49-1.26-1.28-1.76-1.76-0.51-0.47-1.18-1.09-1.5-1.37-0.33-0.28-0.83-0.71-1.12-0.95-0.3-0.24-0.8-0.65-1.13-0.9-0.32-0.25-0.84-0.64-1.14-0.86s-0.97-0.68-1.49-1.03-1.25-0.82-1.61-1.04c-0.36-0.23-0.96-0.58-1.35-0.8-0.38-0.22-1.07-0.61-1.54-0.85-0.46-0.25-1.25-0.65-1.75-0.88-0.5-0.24-1.29-0.6-1.77-0.8s-1.19-0.49-1.6-0.65c-0.4-0.15-1.08-0.4-1.51-0.56-0.43-0.15-1.28-0.42-1.89-0.6-0.6-0.18-1.6-0.46-2.22-0.61-0.61-0.16-1.62-0.39-2.25-0.51-0.63-0.13-1.51-0.28-1.96-0.36-0.46-0.07-1.22-0.17-1.69-0.23-0.48-0.06-1.2-0.13-1.61-0.17-0.4-0.03-1.03-0.08-1.39-0.11-0.36-0.02-1.5-0.05-2.53-0.06zm71.89 0.12c-2.96 0-5.53 2.56-5.53 5.53v83.37c0 2.97 2.57 5.54 5.53 5.54 3.11 0 5.67-2.57 5.67-5.54v-83.37c0-2.97-2.56-5.53-5.67-5.53zm21.05 0c-3.1 0-5.67 2.56-5.67 5.53 0 3.1 2.57 5.66 5.67 5.66h3.37c19.02 0 34.54 16.19 34.54 36.03 0 19.83-15.52 36.02-34.54 36.02h-3.37c-3.1 0-5.67 2.56-5.67 5.66 0 2.97 2.57 5.54 5.67 5.54h3.37c25.23 0 45.74-21.19 45.74-47.22 0-26.04-20.51-47.22-45.74-47.22h-3.37zm68.07 0c-2.97 0-5.53 2.56-5.53 5.53 0 3.1 2.56 5.66 5.53 5.66h48.03c3.1 0 5.66-2.56 5.66-5.66 0-2.97-2.56-5.53-5.66-5.53h-48.03zm149.08 0c-2.96 0-5.53 2.56-5.53 5.53v83.37c0 2.97 2.57 5.54 5.53 5.54 3.11 0 5.67-2.57 5.67-5.54v-83.37c0-2.97-2.56-5.53-5.67-5.53zm46.95 0c-1.62 0-3.23 0.81-4.18 2.16l-31.16 40.6c-1.49 2.03-1.35 4.86 0.27 6.75l36.42 43.04c1.08 1.21 2.57 1.89 4.05 1.89 4.59 0 7.02-5.27 4.05-8.77l-33.32-39.4 28.73-37.64c2.56-3.51 0.14-8.63-4.32-8.63h-0.54zm-395.12 19.96c-0.23 0-0.51 0-0.62 0.02s-0.3 0.07-0.42 0.11-0.32 0.12-0.44 0.18c-0.11 0.06-0.32 0.19-0.47 0.29-0.14 0.1-0.34 0.28-0.45 0.41-0.1 0.12-0.4 0.55-0.67 0.96-0.27 0.4-0.68 1.07-0.93 1.47-0.24 0.41-0.58 0.99-0.74 1.29-0.17 0.3-0.49 0.88-0.71 1.3-0.22 0.41-0.57 1.12-0.78 1.56-0.21 0.45-0.52 1.12-0.68 1.49s-0.42 1-0.59 1.41c-0.16 0.41-0.4 1.04-0.54 1.41-0.13 0.37-0.36 1.06-0.52 1.52-0.15 0.47-0.38 1.22-0.51 1.67s-0.34 1.24-0.47 1.75c-0.12 0.51-0.32 1.39-0.43 1.96-0.12 0.57-0.27 1.4-0.34 1.84s-0.18 1.16-0.24 1.61c-0.05 0.44-0.14 1.22-0.18 1.73-0.05 0.51-0.11 1.27-0.14 1.7-0.03 0.46-0.05 1.62-0.05 2.83 0 1.2 0.02 2.36 0.05 2.82 0.03 0.43 0.09 1.2 0.14 1.71 0.04 0.5 0.13 1.28 0.18 1.73 0.06 0.44 0.18 1.21 0.26 1.71s0.23 1.33 0.34 1.84c0.1 0.51 0.29 1.35 0.42 1.86 0.12 0.51 0.33 1.3 0.46 1.75s0.37 1.22 0.53 1.72c0.17 0.5 0.45 1.31 0.63 1.8s0.47 1.22 0.65 1.64c0.17 0.42 0.46 1.09 0.64 1.48 0.17 0.4 0.59 1.24 0.91 1.88s0.83 1.59 1.13 2.12 0.76 1.29 1.02 1.71c0.26 0.41 0.61 0.95 0.77 1.19s0.47 0.7 0.7 1.01c0.22 0.31 0.6 0.84 0.84 1.16 0.24 0.33 0.67 0.87 0.94 1.21 0.28 0.34 0.71 0.87 0.96 1.16 0.25 0.3 0.76 0.88 1.13 1.28 0.37 0.41 1.05 1.12 1.51 1.58 0.47 0.47 1.19 1.16 1.61 1.54 0.41 0.38 1.09 0.97 1.49 1.31 0.41 0.34 1 0.82 1.31 1.06 0.32 0.25 0.91 0.7 1.33 1.01 0.42 0.3 1.2 0.85 1.73 1.2 0.53 0.36 1.4 0.9 1.92 1.22 0.52 0.31 1.28 0.74 1.69 0.96 0.4 0.22 1.13 0.6 1.6 0.84 0.48 0.24 1.11 0.54 1.41 0.68s0.87 0.39 1.27 0.56c0.39 0.17 1.12 0.46 1.6 0.65 0.49 0.19 1.26 0.46 1.71 0.62 0.45 0.15 1.2 0.39 1.65 0.53 0.46 0.13 1.12 0.32 1.47 0.42 0.35 0.09 1 0.25 1.43 0.35 0.43 0.11 1.18 0.27 1.65 0.36 0.48 0.09 1.15 0.22 1.5 0.28s0.99 0.15 1.42 0.21c0.43 0.05 1.05 0.13 1.39 0.17 0.34 0.03 0.96 0.09 1.39 0.13 0.43 0.03 1.3 0.08 1.94 0.11 0.7 0.03 1.74 0.04 2.62 0.02 0.8-0.01 1.76-0.05 2.13-0.07s1.01-0.07 1.41-0.11c0.41-0.03 1.2-0.12 1.77-0.19s1.43-0.19 1.91-0.27 1.21-0.21 1.63-0.3c0.41-0.08 1.1-0.23 1.54-0.33 0.43-0.11 1.14-0.29 1.58-0.4 0.44-0.12 1.1-0.31 1.48-0.43s1.07-0.34 1.54-0.5c0.48-0.16 1.2-0.42 1.6-0.58 0.4-0.15 1.02-0.4 1.38-0.55s0.97-0.41 1.35-0.59c0.39-0.17 1.22-0.58 1.86-0.9s1.53-0.8 1.98-1.06c0.45-0.25 1.09-0.63 1.41-0.83 0.33-0.19 0.93-0.58 1.34-0.84 0.48-0.32 0.82-0.58 0.99-0.75 0.14-0.14 0.31-0.37 0.39-0.5s0.19-0.35 0.25-0.5c0.06-0.14 0.13-0.41 0.17-0.6 0.04-0.22 0.05-0.46 0.03-0.68-0.01-0.18-0.05-0.45-0.08-0.59-0.04-0.14-0.14-0.4-0.23-0.59-0.09-0.18-0.27-0.45-0.39-0.6-0.13-0.14-0.34-0.35-0.47-0.45-0.14-0.11-0.37-0.25-0.51-0.32-0.15-0.07-0.41-0.16-0.59-0.21-0.23-0.06-0.48-0.09-0.76-0.09-0.24 0-0.55 0.03-0.69 0.07-0.15 0.03-0.39 0.11-0.53 0.18-0.15 0.07-0.62 0.35-1.05 0.63s-1.04 0.66-1.37 0.86c-0.32 0.19-0.85 0.5-1.18 0.68-0.32 0.18-1.13 0.6-1.79 0.93s-1.62 0.78-2.12 0.99c-0.5 0.22-1.24 0.52-1.65 0.67-0.4 0.15-1.14 0.42-1.66 0.59-0.51 0.17-1.3 0.41-1.75 0.54s-1.13 0.31-1.5 0.4c-0.38 0.09-1.06 0.25-1.52 0.34-0.46 0.1-1.22 0.24-1.7 0.32s-1.27 0.19-1.77 0.25-1.26 0.13-1.69 0.17c-0.43 0.03-1.21 0.08-1.73 0.1-0.52 0.03-1.32 0.05-1.77 0.05s-1.25-0.02-1.77-0.05c-0.53-0.02-1.3-0.07-1.73-0.1-0.43-0.04-1.04-0.09-1.35-0.13-0.32-0.03-0.9-0.11-1.31-0.17s-1.1-0.17-1.54-0.25-1.14-0.22-1.56-0.32c-0.42-0.09-1.15-0.27-1.63-0.39-0.48-0.13-1.26-0.36-1.75-0.51s-1.13-0.36-1.43-0.47c-0.3-0.1-0.65-0.23-0.76-0.27-0.12-0.04-0.44-0.16-0.72-0.27s-0.84-0.35-1.24-0.52c-0.41-0.17-1.22-0.55-1.8-0.83-0.58-0.29-1.38-0.69-1.77-0.91s-0.93-0.52-1.18-0.67c-0.26-0.15-0.66-0.39-0.91-0.55-0.24-0.15-0.78-0.5-1.2-0.78s-1.01-0.69-1.31-0.91-0.71-0.52-0.91-0.67c-0.19-0.16-0.55-0.43-0.78-0.62-0.23-0.18-0.7-0.58-1.05-0.88s-0.94-0.82-1.31-1.17c-0.37-0.34-0.99-0.94-1.37-1.33-0.38-0.4-0.93-0.97-1.2-1.28-0.28-0.32-0.67-0.76-0.87-0.99-0.2-0.24-0.58-0.7-0.85-1.04-0.27-0.33-0.68-0.87-0.91-1.18s-0.63-0.87-0.89-1.24c-0.25-0.38-0.67-1.02-0.93-1.43-0.26-0.42-0.68-1.12-0.94-1.56-0.25-0.45-0.76-1.42-1.13-2.16s-0.82-1.69-1-2.11-0.45-1.1-0.61-1.52c-0.17-0.42-0.45-1.21-0.63-1.75-0.18-0.55-0.43-1.33-0.54-1.74-0.12-0.4-0.3-1.09-0.41-1.51-0.1-0.43-0.27-1.15-0.36-1.6-0.09-0.46-0.22-1.16-0.29-1.56-0.07-0.41-0.18-1.19-0.25-1.73-0.07-0.55-0.16-1.36-0.19-1.8-0.04-0.44-0.09-1.21-0.11-1.71s-0.04-1.35-0.04-1.89c0-0.55 0.02-1.38 0.04-1.84s0.06-1.1 0.08-1.41c0.03-0.32 0.08-0.85 0.11-1.19 0.04-0.33 0.1-0.89 0.15-1.24s0.14-0.97 0.21-1.37c0.07-0.41 0.2-1.12 0.29-1.58 0.1-0.47 0.26-1.19 0.37-1.61 0.1-0.41 0.28-1.08 0.4-1.49 0.11-0.4 0.31-1.06 0.44-1.45 0.13-0.4 0.39-1.14 0.57-1.64 0.19-0.49 0.52-1.33 0.75-1.85 0.22-0.52 0.66-1.47 0.98-2.11 0.31-0.64 0.76-1.49 0.99-1.9 0.22-0.41 0.57-1 0.77-1.33 0.2-0.32 0.56-0.89 0.8-1.26 0.24-0.38 0.5-0.79 0.56-0.93s0.15-0.38 0.18-0.53c0.04-0.17 0.07-0.45 0.07-0.7 0-0.29-0.03-0.54-0.08-0.76-0.05-0.18-0.16-0.47-0.24-0.63-0.08-0.17-0.24-0.42-0.36-0.56-0.11-0.14-0.33-0.34-0.47-0.45-0.15-0.11-0.37-0.26-0.5-0.32-0.13-0.07-0.37-0.16-0.53-0.21-0.19-0.06-0.44-0.1-0.71-0.11zm44 7.1c-0.18-0.01-0.43-0.01-0.56 0.01s-0.35 0.07-0.49 0.11-0.38 0.14-0.53 0.22-0.39 0.23-0.52 0.34c-0.14 0.11-0.34 0.31-0.45 0.45-0.11 0.13-0.25 0.36-0.33 0.5-0.07 0.15-2.92 8.6-6.33 18.79-3.42 10.18-6.24 18.64-6.27 18.79s-0.06 0.41-0.06 0.56c0 0.16 0.03 0.44 0.07 0.61 0.03 0.18 0.13 0.47 0.21 0.64s0.23 0.43 0.34 0.58c0.1 0.15 0.32 0.38 0.47 0.51s0.43 0.3 0.62 0.39c0.18 0.09 0.47 0.2 0.63 0.24 0.18 0.04 0.46 0.07 0.7 0.07 0.22 0 0.53-0.03 0.69-0.07 0.17-0.04 0.45-0.14 0.64-0.23 0.18-0.09 0.46-0.27 0.61-0.4 0.15-0.12 0.36-0.33 0.46-0.47 0.1-0.13 0.24-0.38 0.32-0.54 0.08-0.17 2.94-8.64 6.35-18.82 3.93-11.73 6.22-18.62 6.25-18.82 0.03-0.16 0.04-0.45 0.02-0.64-0.01-0.19-0.05-0.45-0.09-0.59s-0.14-0.39-0.22-0.56c-0.09-0.17-0.25-0.43-0.37-0.58-0.13-0.14-0.34-0.35-0.47-0.45-0.14-0.11-0.36-0.25-0.51-0.32-0.14-0.08-0.39-0.17-0.55-0.22-0.17-0.04-0.45-0.09-0.63-0.1zm11.09 6.35c-0.18 0-0.46 0.03-0.62 0.06-0.16 0.04-0.48 0.15-0.7 0.26-0.34 0.16-0.45 0.25-0.78 0.58-0.26 0.27-0.42 0.47-0.53 0.68-0.09 0.16-0.2 0.43-0.25 0.61-0.09 0.26-0.1 0.4-0.1 0.86 0 0.48 0.02 0.6 0.12 0.89 0.06 0.18 0.18 0.46 0.26 0.61 0.14 0.23 1.03 1.15 5.27 5.39l5.11 5.12-5.12 5.11c-4.5 4.51-5.13 5.15-5.26 5.41-0.09 0.15-0.21 0.43-0.27 0.61-0.09 0.28-0.11 0.39-0.11 0.89s0.02 0.61 0.11 0.89c0.06 0.18 0.18 0.46 0.27 0.62 0.09 0.17 0.29 0.42 0.5 0.63 0.21 0.2 0.45 0.4 0.63 0.5 0.16 0.08 0.43 0.21 0.61 0.26 0.28 0.1 0.4 0.11 0.87 0.11 0.46 0.01 0.6-0.01 0.87-0.09 0.17-0.05 0.45-0.17 0.61-0.25l0.29-0.15 6.38-6.38c5.65-5.65 6.4-6.4 6.54-6.66 0.08-0.16 0.2-0.43 0.26-0.61 0.09-0.28 0.11-0.4 0.11-0.87 0-0.46-0.01-0.6-0.09-0.87-0.06-0.17-0.17-0.45-0.25-0.61l-0.15-0.3-6.4-6.39-6.4-6.4-0.4-0.19c-0.22-0.11-0.54-0.23-0.72-0.26-0.18-0.04-0.47-0.07-0.66-0.06zm-34.8 0.01c-0.31-0.01-0.55 0.01-0.76 0.05-0.16 0.04-0.47 0.15-0.69 0.26l-0.4 0.19-6.4 6.4-6.4 6.39-0.19 0.41c-0.12 0.24-0.22 0.54-0.27 0.75-0.05 0.26-0.06 0.47-0.04 0.76 0.01 0.23 0.06 0.53 0.11 0.7 0.05 0.16 0.16 0.43 0.24 0.59l0.16 0.3 6.37 6.37c5.65 5.66 6.41 6.4 6.66 6.54 0.16 0.09 0.44 0.2 0.61 0.26 0.29 0.1 0.4 0.11 0.9 0.11s0.61-0.01 0.89-0.11c0.18-0.05 0.45-0.17 0.6-0.26 0.16-0.09 0.41-0.27 0.56-0.42 0.16-0.14 0.37-0.39 0.48-0.56s0.25-0.42 0.3-0.55c0.05-0.14 0.11-0.38 0.15-0.55 0.03-0.17 0.06-0.42 0.06-0.56 0-0.13-0.03-0.38-0.06-0.55-0.04-0.17-0.1-0.42-0.15-0.55s-0.17-0.36-0.26-0.51c-0.13-0.19-1.55-1.64-5.24-5.34l-5.08-5.08 5.09-5.09c3.14-3.14 5.14-5.18 5.22-5.31 0.08-0.12 0.18-0.33 0.24-0.47s0.13-0.41 0.17-0.61c0.06-0.26 0.07-0.45 0.05-0.73-0.01-0.23-0.07-0.52-0.13-0.71-0.05-0.18-0.17-0.45-0.26-0.61-0.1-0.18-0.29-0.42-0.52-0.65-0.25-0.24-0.46-0.4-0.66-0.51-0.16-0.08-0.43-0.19-0.59-0.24-0.2-0.07-0.44-0.1-0.76-0.11zm178.8 6.38c-2.97 0-5.53 2.56-5.53 5.66v43.44c0 2.97 2.56 5.54 5.53 5.54h48.03c3.1 0 5.66-2.57 5.66-5.54 0-3.1-2.56-5.66-5.66-5.66h-42.37v-32.25h35.08c3.1 0 5.67-2.42 5.67-5.53 0-3.1-2.57-5.66-5.67-5.66h-40.74zm-23.45 85.61v17.02c-0.48-0.24-0.96-0.48-1.44-0.66-2.09-0.89-4.31-1.32-6.65-1.32-2.28 0-4.56 0.43-6.66 1.32-2.04 0.84-3.83 2.1-5.45 3.66-1.56 1.56-2.76 3.42-3.66 5.46-0.84 2.1-1.32 4.32-1.32 6.59 0 2.34 0.48 4.56 1.32 6.66 0.9 2.04 2.1 3.9 3.66 5.46 1.62 1.55 3.41 2.81 5.45 3.65 2.1 0.9 4.38 1.32 6.66 1.32s4.56-0.42 6.65-1.32c2.04-0.84 3.84-2.1 5.46-3.65 1.56-1.56 2.76-3.42 3.66-5.46 0.9-2.1 1.32-4.32 1.32-6.66v-29.08l-9-2.99zm-80.24 4.61l-9 3v23.26c0 2.52 0.48 4.92 1.44 7.2 0.9 2.22 2.28 4.2 3.96 5.88 1.68 1.74 3.66 3.05 5.87 4.01 2.28 0.96 4.74 1.44 7.26 1.44v-8.99c-5.28 0-9.53-4.26-9.53-9.54v-7.13h9.53v-8.39h-9.53v-10.74zm108.79 9.54l-9.06 2.99v31.6h9.06v-34.59zm-140.35 0.42c-6.06 0-10.97 4.97-10.97 11.03 0 6.05 4.91 10.97 10.97 10.97h2.52c0.84 0 1.56 0.72 1.56 1.56 0 0.9-0.72 1.56-1.56 1.56h-14.03v9.41h14.03c6.06 0 10.97-4.91 10.97-10.97s-4.91-10.97-10.97-10.97h-2.52c-0.9 0-1.56-0.72-1.56-1.56 0-0.9 0.66-1.62 1.56-1.62h12.53v-9.41h-12.53zm166.48 0.42c-2.28 0-4.55 0.41-6.65 1.31-2.04 0.9-3.84 2.1-5.46 3.66-1.56 1.62-2.76 3.42-3.66 5.46-0.84 2.1-1.32 4.32-1.32 6.65 0 2.28 0.48 4.56 1.32 6.66 0.9 2.04 2.1 3.84 3.66 5.46 1.62 1.55 3.42 2.75 5.46 3.65 2.1 0.84 4.37 1.32 6.65 1.32s4.56-0.48 6.66-1.32c2.04-0.9 3.9-2.1 5.45-3.65 1.56-1.62 2.76-3.42 3.66-5.46 0.9-2.1 1.32-4.38 1.32-6.66 0-2.33-0.42-4.55-1.32-6.65-0.9-2.04-2.1-3.9-3.66-5.46-1.61-1.56-3.41-2.76-5.45-3.66-2.1-0.9-4.38-1.31-6.66-1.31zm-118.07 0.36v18.82c0 4.02 1.56 7.8 4.38 10.61 2.81 2.82 6.59 4.38 10.61 4.38s7.79-1.56 10.61-4.38c2.82-2.81 4.38-6.59 4.38-10.61v-18.82h-8.99v18.82c0 3.3-2.7 6-6 6s-6-2.7-6-6v-18.82h-8.99zm55.3 8.63c4.43 0 8.09 3.66 8.09 8.09 0 4.5-3.66 8.1-8.09 8.1-4.44 0-8.1-3.6-8.1-8.1 0-4.43 3.66-8.09 8.1-8.09zm62.77 0c4.44 0 8.1 3.66 8.1 8.09 0 4.44-3.66 8.1-8.1 8.1s-8.09-3.66-8.09-8.1c0-4.43 3.65-8.09 8.09-8.09z" /></svg>